<svg width="32" height="32" viewBox="0 0 32 32" fill="none" xmlns="http://www.w3.org/2000/svg">
<circle cx="16" cy="16" r="16" fill="#535864"/>
<path d="M21.3333 9.33331C21.8637 9.33331 22.3724 9.54403 22.7475 9.9191C23.1226 10.2942 23.3333 10.8029 23.3333 11.3333V12.6666H22V20.6666C22 21.1971 21.7892 21.7058 21.4142 22.0809C21.0391 22.4559 20.5304 22.6666 20 22.6666H10.6666C10.1362 22.6666 9.62749 22.4559 9.25241 22.0809C8.87734 21.7058 8.66663 21.1971 8.66663 20.6666V19.3333H19.3333V20.6666C19.3333 20.8299 19.3933 20.9875 19.5018 21.1096C19.6103 21.2316 19.7598 21.3095 19.922 21.3286L20 21.3333C20.1632 21.3333 20.3208 21.2733 20.4429 21.1648C20.5649 21.0563 20.6429 20.9068 20.662 20.7446L20.6666 20.6666V18H9.99996V11.3333C9.99996 10.8029 10.2107 10.2942 10.5857 9.9191C10.9608 9.54403 11.4695 9.33331 12 9.33331H21.3333Z" fill="white"/>
</svg>
